<mxfile host="app.diagrams.net" agent="Mozilla/5.0 (Windows NT 10.0; Win64; x64) AppleWebKit/537.36 (KHTML, like Gecko) Chrome/127.0.0.0 Safari/537.36 Edg/127.0.0.0" version="24.7.6">
  <diagram name="Page-1" id="7GtdEtNTiuyxuCZ7v_iz">
    <mxGraphModel dx="1183" dy="646" grid="1" gridSize="10" guides="1" tooltips="1" connect="1" arrows="1" fold="1" page="1" pageScale="1" pageWidth="850" pageHeight="1100" background="none" math="0" shadow="0">
      <root>
        <mxCell id="0" />
        <mxCell id="1" parent="0" />
        <mxCell id="5aao7QJ3LBbZlcYDRLqk-16" style="edgeStyle=orthogonalEdgeStyle;rounded=0;orthogonalLoop=1;jettySize=auto;html=1;" parent="1" source="5aao7QJ3LBbZlcYDRLqk-9" target="5aao7QJ3LBbZlcYDRLqk-14" edge="1">
          <mxGeometry relative="1" as="geometry" />
        </mxCell>
        <mxCell id="5aao7QJ3LBbZlcYDRLqk-42" value="Manipula motos na base" style="edgeLabel;html=1;align=center;verticalAlign=middle;resizable=0;points=[];" parent="5aao7QJ3LBbZlcYDRLqk-16" vertex="1" connectable="0">
          <mxGeometry x="-0.085" relative="1" as="geometry">
            <mxPoint as="offset" />
          </mxGeometry>
        </mxCell>
        <mxCell id="5aao7QJ3LBbZlcYDRLqk-74" style="edgeStyle=orthogonalEdgeStyle;rounded=0;orthogonalLoop=1;jettySize=auto;html=1;exitX=1;exitY=0.5;exitDx=0;exitDy=0;entryX=0.5;entryY=0;entryDx=0;entryDy=0;" parent="1" source="5aao7QJ3LBbZlcYDRLqk-9" target="5aao7QJ3LBbZlcYDRLqk-35" edge="1">
          <mxGeometry relative="1" as="geometry">
            <mxPoint x="390" y="420" as="targetPoint" />
            <Array as="points">
              <mxPoint x="420" y="120" />
              <mxPoint x="420" y="390" />
              <mxPoint x="300" y="390" />
            </Array>
          </mxGeometry>
        </mxCell>
        <mxCell id="5aao7QJ3LBbZlcYDRLqk-75" value="Consulta moto associada a&amp;nbsp;&lt;div&gt;aluguel antes da deleção&lt;/div&gt;" style="edgeLabel;html=1;align=center;verticalAlign=middle;resizable=0;points=[];" parent="5aao7QJ3LBbZlcYDRLqk-74" vertex="1" connectable="0">
          <mxGeometry x="-0.2492" y="2" relative="1" as="geometry">
            <mxPoint as="offset" />
          </mxGeometry>
        </mxCell>
        <mxCell id="5aao7QJ3LBbZlcYDRLqk-9" value="Rent.Backoffice.API" style="rounded=1;whiteSpace=wrap;html=1;" parent="1" vertex="1">
          <mxGeometry x="240" y="90" width="120" height="60" as="geometry" />
        </mxCell>
        <object placeholders="1" c4Name="Rent.Backoffice" c4Type="SystemScopeBoundary" c4Application="Software System" label="&lt;font style=&quot;font-size: 16px&quot;&gt;&lt;b&gt;&lt;div style=&quot;text-align: left&quot;&gt;%c4Name%&lt;/div&gt;&lt;/b&gt;&lt;/font&gt;&lt;div style=&quot;text-align: left&quot;&gt;[%c4Application%]&lt;/div&gt;" id="5aao7QJ3LBbZlcYDRLqk-13">
          <mxCell style="rounded=1;fontSize=11;whiteSpace=wrap;html=1;dashed=1;arcSize=20;fillColor=none;strokeColor=#666666;fontColor=#333333;labelBackgroundColor=none;align=left;verticalAlign=bottom;labelBorderColor=none;spacingTop=0;spacing=10;dashPattern=8 4;metaEdit=1;rotatable=0;perimeter=rectanglePerimeter;noLabel=0;labelPadding=0;allowArrows=0;connectable=0;expand=0;recursiveResize=0;editable=1;pointerEvents=0;absoluteArcSize=1;points=[[0.25,0,0],[0.5,0,0],[0.75,0,0],[1,0.25,0],[1,0.5,0],[1,0.75,0],[0.75,1,0],[0.5,1,0],[0.25,1,0],[0,0.75,0],[0,0.5,0],[0,0.25,0]];" parent="1" vertex="1">
            <mxGeometry x="200" y="80" width="760" height="300" as="geometry" />
          </mxCell>
        </object>
        <mxCell id="5aao7QJ3LBbZlcYDRLqk-14" value="SQL" style="shape=cylinder3;whiteSpace=wrap;html=1;boundedLbl=1;backgroundOutline=1;size=15;" parent="1" vertex="1">
          <mxGeometry x="270" y="240" width="60" height="80" as="geometry" />
        </mxCell>
        <mxCell id="5aao7QJ3LBbZlcYDRLqk-62" style="edgeStyle=orthogonalEdgeStyle;rounded=0;orthogonalLoop=1;jettySize=auto;html=1;" parent="1" source="5aao7QJ3LBbZlcYDRLqk-15" target="5aao7QJ3LBbZlcYDRLqk-26" edge="1">
          <mxGeometry relative="1" as="geometry" />
        </mxCell>
        <mxCell id="5aao7QJ3LBbZlcYDRLqk-70" value="Consome os eventos de motos&amp;nbsp;&lt;div&gt;cadastradas e/ou alteradas&lt;/div&gt;" style="edgeLabel;html=1;align=center;verticalAlign=middle;resizable=0;points=[];" parent="5aao7QJ3LBbZlcYDRLqk-62" vertex="1" connectable="0">
          <mxGeometry x="0.4478" y="-2" relative="1" as="geometry">
            <mxPoint as="offset" />
          </mxGeometry>
        </mxCell>
        <mxCell id="5aao7QJ3LBbZlcYDRLqk-15" value="Message&lt;div&gt;Bus&lt;/div&gt;" style="strokeWidth=2;html=1;shape=mxgraph.flowchart.direct_data;whiteSpace=wrap;" parent="1" vertex="1">
          <mxGeometry x="771.25" y="97.5" width="97.5" height="45" as="geometry" />
        </mxCell>
        <mxCell id="5aao7QJ3LBbZlcYDRLqk-17" value="NoSQL" style="strokeWidth=2;html=1;shape=mxgraph.flowchart.multi-document;whiteSpace=wrap;" parent="1" vertex="1">
          <mxGeometry x="520" y="580" width="88" height="60" as="geometry" />
        </mxCell>
        <mxCell id="5aao7QJ3LBbZlcYDRLqk-19" style="edgeStyle=orthogonalEdgeStyle;rounded=0;orthogonalLoop=1;jettySize=auto;html=1;entryX=0;entryY=0.5;entryDx=0;entryDy=0;" parent="1" source="5aao7QJ3LBbZlcYDRLqk-18" target="5aao7QJ3LBbZlcYDRLqk-9" edge="1">
          <mxGeometry relative="1" as="geometry" />
        </mxCell>
        <mxCell id="5aao7QJ3LBbZlcYDRLqk-21" value="Insere, edita e exclui&lt;div&gt;motos para locação&lt;/div&gt;" style="edgeLabel;html=1;align=center;verticalAlign=middle;resizable=0;points=[];" parent="5aao7QJ3LBbZlcYDRLqk-19" vertex="1" connectable="0">
          <mxGeometry x="-0.0727" y="2" relative="1" as="geometry">
            <mxPoint x="-9" as="offset" />
          </mxGeometry>
        </mxCell>
        <mxCell id="5aao7QJ3LBbZlcYDRLqk-18" value="Admin" style="shape=umlActor;verticalLabelPosition=bottom;verticalAlign=top;html=1;outlineConnect=0;" parent="1" vertex="1">
          <mxGeometry x="40" y="90" width="30" height="60" as="geometry" />
        </mxCell>
        <mxCell id="5aao7QJ3LBbZlcYDRLqk-22" style="edgeStyle=orthogonalEdgeStyle;rounded=0;orthogonalLoop=1;jettySize=auto;html=1;entryX=0;entryY=0.5;entryDx=0;entryDy=0;entryPerimeter=0;" parent="1" source="5aao7QJ3LBbZlcYDRLqk-9" target="5aao7QJ3LBbZlcYDRLqk-15" edge="1">
          <mxGeometry relative="1" as="geometry" />
        </mxCell>
        <mxCell id="5aao7QJ3LBbZlcYDRLqk-23" value="Notifica a inserção/modificação&amp;nbsp;&lt;div&gt;de motos&lt;/div&gt;" style="edgeLabel;html=1;align=center;verticalAlign=middle;resizable=0;points=[];" parent="5aao7QJ3LBbZlcYDRLqk-22" vertex="1" connectable="0">
          <mxGeometry x="-0.1583" relative="1" as="geometry">
            <mxPoint as="offset" />
          </mxGeometry>
        </mxCell>
        <mxCell id="5aao7QJ3LBbZlcYDRLqk-26" value="Rent.Renter.BikeUpdatesMonitor.Consumer" style="rounded=1;html=1;whiteSpace=wrap;" parent="1" vertex="1">
          <mxGeometry x="700" y="580" width="240" height="60" as="geometry" />
        </mxCell>
        <mxCell id="5aao7QJ3LBbZlcYDRLqk-41" style="edgeStyle=orthogonalEdgeStyle;rounded=0;orthogonalLoop=1;jettySize=auto;html=1;" parent="1" source="5aao7QJ3LBbZlcYDRLqk-35" target="5aao7QJ3LBbZlcYDRLqk-37" edge="1">
          <mxGeometry relative="1" as="geometry" />
        </mxCell>
        <mxCell id="5aao7QJ3LBbZlcYDRLqk-46" value="Manipula os entregadores&lt;div&gt;&amp;nbsp;e locações na base&lt;/div&gt;" style="edgeLabel;html=1;align=center;verticalAlign=middle;resizable=0;points=[];" parent="5aao7QJ3LBbZlcYDRLqk-41" vertex="1" connectable="0">
          <mxGeometry x="-0.1446" y="1" relative="1" as="geometry">
            <mxPoint as="offset" />
          </mxGeometry>
        </mxCell>
        <mxCell id="5aao7QJ3LBbZlcYDRLqk-48" style="edgeStyle=orthogonalEdgeStyle;rounded=0;orthogonalLoop=1;jettySize=auto;html=1;" parent="1" source="5aao7QJ3LBbZlcYDRLqk-35" target="5aao7QJ3LBbZlcYDRLqk-47" edge="1">
          <mxGeometry relative="1" as="geometry" />
        </mxCell>
        <mxCell id="5aao7QJ3LBbZlcYDRLqk-49" value="Manipula documentos dos&amp;nbsp;&lt;div&gt;entregadores no storage&lt;/div&gt;" style="edgeLabel;html=1;align=center;verticalAlign=middle;resizable=0;points=[];" parent="5aao7QJ3LBbZlcYDRLqk-48" vertex="1" connectable="0">
          <mxGeometry x="0.1363" y="1" relative="1" as="geometry">
            <mxPoint x="-1" y="18" as="offset" />
          </mxGeometry>
        </mxCell>
        <mxCell id="5aao7QJ3LBbZlcYDRLqk-66" style="edgeStyle=orthogonalEdgeStyle;rounded=0;orthogonalLoop=1;jettySize=auto;html=1;" parent="1" source="5aao7QJ3LBbZlcYDRLqk-35" target="5aao7QJ3LBbZlcYDRLqk-17" edge="1">
          <mxGeometry relative="1" as="geometry" />
        </mxCell>
        <mxCell id="5aao7QJ3LBbZlcYDRLqk-67" value="Consulta motos&amp;nbsp;&lt;div&gt;para locação&lt;/div&gt;" style="edgeLabel;html=1;align=center;verticalAlign=middle;resizable=0;points=[];" parent="5aao7QJ3LBbZlcYDRLqk-66" vertex="1" connectable="0">
          <mxGeometry x="0.5641" relative="1" as="geometry">
            <mxPoint y="13" as="offset" />
          </mxGeometry>
        </mxCell>
        <mxCell id="5aao7QJ3LBbZlcYDRLqk-35" value="Rent.Renter.&lt;span style=&quot;background-color: initial;&quot;&gt;API&lt;/span&gt;" style="rounded=1;whiteSpace=wrap;html=1;" parent="1" vertex="1">
          <mxGeometry x="240" y="420" width="120" height="60" as="geometry" />
        </mxCell>
        <mxCell id="5aao7QJ3LBbZlcYDRLqk-37" value="SQL" style="shape=cylinder3;whiteSpace=wrap;html=1;boundedLbl=1;backgroundOutline=1;size=15;" parent="1" vertex="1">
          <mxGeometry x="270" y="570" width="60" height="80" as="geometry" />
        </mxCell>
        <object placeholders="1" c4Name="Rent" c4Type="ContainerScopeBoundary" c4Application="Container" label="&lt;font style=&quot;font-size: 16px&quot;&gt;&lt;b&gt;&lt;div style=&quot;text-align: left&quot;&gt;%c4Name%&lt;/div&gt;&lt;/b&gt;&lt;/font&gt;&lt;div style=&quot;text-align: left&quot;&gt;[%c4Application%]&lt;/div&gt;" id="5aao7QJ3LBbZlcYDRLqk-39">
          <mxCell style="rounded=1;fontSize=11;whiteSpace=wrap;html=1;dashed=1;arcSize=20;fillColor=none;strokeColor=#666666;fontColor=#333333;labelBackgroundColor=none;align=left;verticalAlign=bottom;labelBorderColor=none;spacingTop=0;spacing=10;dashPattern=8 4;metaEdit=1;rotatable=0;perimeter=rectanglePerimeter;noLabel=0;labelPadding=0;allowArrows=0;connectable=0;expand=0;recursiveResize=0;editable=1;pointerEvents=0;absoluteArcSize=1;points=[[0.25,0,0],[0.5,0,0],[0.75,0,0],[1,0.25,0],[1,0.5,0],[1,0.75,0],[0.75,1,0],[0.5,1,0],[0.25,1,0],[0,0.75,0],[0,0.5,0],[0,0.25,0]];" parent="1" vertex="1">
            <mxGeometry x="160" y="40" width="840" height="720" as="geometry" />
          </mxCell>
        </object>
        <object placeholders="1" c4Name="Rent.Renter" c4Type="SystemScopeBoundary" c4Application="Software System" label="&lt;font style=&quot;font-size: 16px&quot;&gt;&lt;b&gt;&lt;div style=&quot;text-align: left&quot;&gt;%c4Name%&lt;/div&gt;&lt;/b&gt;&lt;/font&gt;&lt;div style=&quot;text-align: left&quot;&gt;[%c4Application%]&lt;/div&gt;" id="5aao7QJ3LBbZlcYDRLqk-40">
          <mxCell style="rounded=1;fontSize=11;whiteSpace=wrap;html=1;dashed=1;arcSize=20;fillColor=none;strokeColor=#666666;fontColor=#333333;labelBackgroundColor=none;align=left;verticalAlign=bottom;labelBorderColor=none;spacingTop=0;spacing=10;dashPattern=8 4;metaEdit=1;rotatable=0;perimeter=rectanglePerimeter;noLabel=0;labelPadding=0;allowArrows=0;connectable=0;expand=0;recursiveResize=0;editable=1;pointerEvents=0;absoluteArcSize=1;points=[[0.25,0,0],[0.5,0,0],[0.75,0,0],[1,0.25,0],[1,0.5,0],[1,0.75,0],[0.75,1,0],[0.5,1,0],[0.25,1,0],[0,0.75,0],[0,0.5,0],[0,0.25,0]];" parent="1" vertex="1">
            <mxGeometry x="200" y="400" width="760" height="310" as="geometry" />
          </mxCell>
        </object>
        <mxCell id="5aao7QJ3LBbZlcYDRLqk-44" style="edgeStyle=orthogonalEdgeStyle;rounded=0;orthogonalLoop=1;jettySize=auto;html=1;" parent="1" source="5aao7QJ3LBbZlcYDRLqk-43" target="5aao7QJ3LBbZlcYDRLqk-35" edge="1">
          <mxGeometry relative="1" as="geometry" />
        </mxCell>
        <mxCell id="5aao7QJ3LBbZlcYDRLqk-45" value="Se cadastra e&amp;nbsp;&lt;div&gt;aluga motos&lt;/div&gt;" style="edgeLabel;html=1;align=center;verticalAlign=middle;resizable=0;points=[];" parent="5aao7QJ3LBbZlcYDRLqk-44" vertex="1" connectable="0">
          <mxGeometry x="-0.2311" relative="1" as="geometry">
            <mxPoint as="offset" />
          </mxGeometry>
        </mxCell>
        <mxCell id="5aao7QJ3LBbZlcYDRLqk-43" value="Locatário" style="shape=umlActor;verticalLabelPosition=bottom;verticalAlign=top;html=1;outlineConnect=0;" parent="1" vertex="1">
          <mxGeometry x="40" y="420" width="30" height="60" as="geometry" />
        </mxCell>
        <mxCell id="5aao7QJ3LBbZlcYDRLqk-47" value="File Storage" style="html=1;verticalLabelPosition=bottom;align=center;labelBackgroundColor=#ffffff;verticalAlign=top;strokeWidth=2;strokeColor=#0080F0;shadow=0;dashed=0;shape=mxgraph.ios7.icons.storage;" parent="1" vertex="1">
          <mxGeometry x="420" y="603" width="40" height="14" as="geometry" />
        </mxCell>
        <mxCell id="5aao7QJ3LBbZlcYDRLqk-71" style="edgeStyle=orthogonalEdgeStyle;rounded=0;orthogonalLoop=1;jettySize=auto;html=1;entryX=1;entryY=0.5;entryDx=0;entryDy=0;entryPerimeter=0;" parent="1" source="5aao7QJ3LBbZlcYDRLqk-26" target="5aao7QJ3LBbZlcYDRLqk-17" edge="1">
          <mxGeometry relative="1" as="geometry" />
        </mxCell>
        <mxCell id="5aao7QJ3LBbZlcYDRLqk-72" value="Replica&amp;nbsp;&lt;div&gt;motos&lt;/div&gt;" style="edgeLabel;html=1;align=center;verticalAlign=middle;resizable=0;points=[];" parent="5aao7QJ3LBbZlcYDRLqk-71" vertex="1" connectable="0">
          <mxGeometry x="0.1696" y="3" relative="1" as="geometry">
            <mxPoint x="14" y="-3" as="offset" />
          </mxGeometry>
        </mxCell>
      </root>
    </mxGraphModel>
  </diagram>
</mxfile>
